<?xml version="1.0" encoding="utf-8"?>
<!-- Generator: Adobe Illustrator 28.3.0, SVG Export Plug-In . SVG Version: 6.00 Build 0)  -->
<svg version="1.1" id="a" xmlns="http://www.w3.org/2000/svg" xmlns:xlink="http://www.w3.org/1999/xlink" x="0px" y="0px"
	 viewBox="0 0 512 512" enable-background="new 0 0 512 512" xml:space="preserve">
<path fill="#4285F4" d="M423.34,270.74l-132.46,68.39l-27.54,14.22c-2.3,1.19-4.82,1.78-7.34,1.78h-0.01
	c-0.71,0-1.43-0.05-2.14-0.15c-0.22-0.02-0.45-0.06-0.67-0.1c-0.14-0.02-0.29-0.05-0.43-0.09c-0.78-0.15-1.55-0.37-2.3-0.65
	c-0.01,0-0.02,0-0.03,0c-0.6-0.22-1.18-0.48-1.76-0.78l-160-82.61c-7.85-4.06-10.93-13.71-6.88-21.56
	c4.06-7.85,13.71-10.93,21.56-6.87L256,321.13l152.66-78.81c7.85-4.06,17.5-0.98,21.56,6.87c4.05,7.85,0.97,17.5-6.88,21.56
	L423.34,270.74z"/>
<path fill="#4285F4" d="M416,432c-8.84,0-16-7.16-16-16V173.39c0-8.84,7.16-16,16-16s16,7.16,16,16V416
	C432,424.84,424.84,432,416,432z"/>
<path fill="#34A853" d="M96,432c-8.84,0-16-7.16-16-16V173.39c0-8.84,7.16-16,16-16s16,7.16,16,16V416C112,424.84,104.84,432,96,432
	z"/>
<path fill="#FBBC04" d="M422.97,159l-160-77.4c-4.4-2.13-9.54-2.13-13.94,0l-29.77,14.41h-0.01L89.03,159
	c-5.45,2.64-8.95,8.13-9.03,14.19s3.28,11.65,8.66,14.43l160,82.61c2.22,1.15,4.65,1.74,7.08,1.77c0.08,0.01,0.17,0.01,0.27,0.01
	c0.71,0,1.42-0.05,2.14-0.15c0.22-0.02,0.45-0.06,0.67-0.1c0.14-0.02,0.28-0.05,0.43-0.09c0.78-0.15,1.55-0.37,2.3-0.65
	c0.01-0.01,0.02-0.01,0.03-0.01c0.6-0.22,1.18-0.48,1.76-0.78l160-82.61c5.39-2.78,8.74-8.37,8.66-14.43
	C431.92,167.13,428.42,161.64,422.97,159L422.97,159z M256,237.99l-124.22-64.13L256,113.77l124.22,60.09L256,237.99L256,237.99z"/>
<path fill="#34A853" d="M290.88,339.13l-27.54,14.22c-2.3,1.19-4.82,1.78-7.34,1.78h-0.01c-0.71,0-1.43-0.05-2.14-0.15
	c-0.22-0.02-0.45-0.06-0.67-0.1c-0.14-0.02-0.29-0.05-0.43-0.09c-0.78-0.15-1.54-0.37-2.3-0.65c-0.01,0-0.02,0-0.03,0
	c-0.6-0.22-1.18-0.48-1.76-0.78l-160-82.61c-7.85-4.06-10.93-13.71-6.88-21.56c4.06-7.85,13.71-10.93,21.56-6.87L256,321.13
	l34.88,18.01L290.88,339.13z"/>
<path fill="#EA4335" d="M432,173.18c0.08,6.06-3.27,11.65-8.66,14.43l-160,82.61c-0.58,0.3-1.17,0.56-1.76,0.78
	c-0.01,0-0.02,0-0.03,0.01c-0.76,0.28-1.53,0.5-2.3,0.65c-0.15,0.04-0.29,0.07-0.43,0.09c-0.22,0.04-0.45,0.08-0.67,0.1
	c-0.72,0.1-1.43,0.15-2.14,0.15c-0.1,0-0.19,0-0.27-0.01c-4.89-0.39,13.34-11.94,10.54-17.35c-4.05-7.85-18.13-12.59-10.28-16.65
	l124.22-64.13L256,113.77L219.26,96l29.77-14.41c4.4-2.13,9.54-2.13,13.94,0l160,77.4C428.42,161.63,431.92,167.12,432,173.18
	L432,173.18z"/>
<polygon fill="#4285F4" points="256,203.08 200.96,174.94 256,148.92 311.04,174.94 "/>
<g>
	<defs>
		<path id="SVGID_1_" d="M256.01,272c-5.79,0-11.39-3.16-14.23-8.66c-4.05-7.85-0.98-17.5,6.88-21.55l131.56-67.93L249.03,110.4
			c-7.95-3.85-11.28-13.42-7.44-21.37c3.85-7.95,13.42-11.28,21.37-7.43l160,77.39c5.46,2.64,8.95,8.13,9.03,14.19
			s-3.27,11.64-8.66,14.42l-160,82.61C260.98,271.42,258.47,272,256.01,272L256.01,272z"/>
	</defs>
	<clipPath id="SVGID_00000033357542629529359380000001708836285430561664_">
		<use xlink:href="#SVGID_1_"  overflow="visible"/>
	</clipPath>
	<g clip-path="url(#SVGID_00000033357542629529359380000001708836285430561664_)">
		<path fill="#FBBC04" d="M295.99,292.66c-2.47,0-4.98-0.57-7.33-1.79l-160-82.61c-7.85-4.05-10.93-13.7-6.88-21.55
			c4.06-7.85,13.71-10.93,21.56-6.87l160,82.61c7.85,4.05,10.93,13.7,6.88,21.55C307.38,289.5,301.78,292.66,295.99,292.66
			L295.99,292.66z"/>
	</g>
</g>
</svg>
