<svg xmlns="http://www.w3.org/2000/svg" width="1.346ex" height="1.862ex" role="img" focusable="false" viewBox="0 -704 595 823" xmlns:xlink="http://www.w3.org/1999/xlink" aria-hidden="true" style="vertical-align: -0.269ex;"><defs><path id="MJX-1-TEX-C-47" d="M216 68Q155 68 115 100T59 177T44 273Q44 299 50 333T73 421T133 533T239 632Q346 704 466 704Q508 704 515 703Q555 696 577 681T599 635Q599 605 570 560T523 496Q490 466 455 466Q440 466 440 475T469 526T499 589Q499 605 489 617Q460 636 403 636Q343 636 295 611T220 548T174 464T150 382T144 318Q144 241 180 189T287 137Q325 137 359 160Q428 205 466 322Q472 342 501 359T551 376Q557 376 560 373T564 368L565 365Q560 341 551 302T512 173T451 31Q359 -119 204 -119Q163 -118 127 -109T74 -91T53 -77Q52 -75 52 -71Q52 -54 79 -35T132 -14H140L151 -19Q210 -49 281 -49H289Q312 -49 329 -31Q351 -7 372 36T405 109T416 142L408 136Q401 131 392 125T369 111T338 96T303 82T261 72T216 68Z"></path></defs><g stroke="currentColor" fill="currentColor" stroke-width="0" transform="scale(1,-1)"><g data-mml-node="math"><g data-mml-node="TeXAtom" data-mjx-texclass="ORD"><g data-mml-node="mi"><use data-c="47" xlink:href="#MJX-1-TEX-C-47"></use></g></g></g></g></svg>