<svg xmlns="http://www.w3.org/2000/svg" width="256" height="256" viewBox="0 0 100 100"><rect width="100" height="100" rx="20" fill="#1976d2"></rect><path d="M25.34 77.37L6.35 77.37L6.35 22.63L24.25 22.63Q33.16 22.63 37.65 26.31Q42.14 30.00 42.14 37.22L42.14 37.22Q42.14 41.05 39.96 44.00Q37.78 46.95 34.02 48.57L34.02 48.57Q38.46 49.81 41.03 53.29Q43.61 56.77 43.61 61.58L43.61 61.58Q43.61 68.95 38.83 73.16Q34.06 77.37 25.34 77.37L25.34 77.37ZM25.60 51.77L13.57 51.77L13.57 71.47L25.49 71.47Q30.52 71.47 33.44 68.86Q36.35 66.24 36.35 61.66L36.35 61.66Q36.35 51.77 25.60 51.77L25.60 51.77ZM13.57 28.57L13.57 45.98L24.47 45.98Q29.21 45.98 32.05 43.61Q34.89 41.24 34.89 37.18L34.89 37.18Q34.89 32.67 32.25 30.62Q29.62 28.57 24.25 28.57L24.25 28.57L13.57 28.57ZM74.40 55.94L61.50 55.94L61.50 77.37L54.29 77.37L54.29 22.63L74.48 22.63Q83.46 22.63 88.56 27.22Q93.65 31.80 93.65 39.36L93.65 39.36Q93.65 47.33 88.67 51.64Q83.69 55.94 74.40 55.94L74.40 55.94ZM61.50 28.57L61.50 50.04L74.48 50.04Q80.27 50.04 83.35 47.31Q86.43 44.59 86.43 39.44L86.43 39.44Q86.43 34.55 83.35 31.61Q80.27 28.68 74.89 28.57L74.89 28.57L61.50 28.57Z" fill="#fff"></path></svg>
